<svg xmlns="http://www.w3.org/2000/svg" width="24" height="24">
  <g fill="none" fill-rule="evenodd">
    <path d="M24 0v24H0V0h24ZM12.6 23.26h-.02l-.07.03h-.03l-.07-.03h-.03v.01l-.02.43v.02l.02.02.1.07h.02l.11-.07.01-.02v-.02l-.01-.42c0-.01 0-.02-.02-.02Zm.26-.12h-.01l-.19.1-.01.01v.01l.01.43.01.01v.01l.2.1.04-.01v-.02l-.03-.61c0-.02-.01-.02-.02-.03Zm-.72 0a.02.02 0 0 0-.02.01l-.01.02-.03.61.01.02h.02l.2-.09.01-.02.02-.43v-.01l-.01-.01-.19-.1Z"/>
    <path fill="#09244B" d="M12.7 15.7a1 1 0 0 1-1.4 0l-5.66-5.65a1 1 0 1 1 1.41-1.41L12 13.59l4.95-4.95a1 1 0 0 1 1.41 1.41l-5.65 5.66Z"/>
  </g>
</svg>
